<?xml version="1.0" standalone="no"?><!DOCTYPE svg PUBLIC "-//W3C//DTD SVG 1.1//EN" "http://www.w3.org/Graphics/SVG/1.1/DTD/svg11.dtd"><svg t="1554987264955" class="icon" style="" viewBox="0 0 1024 1024" version="1.1" xmlns="http://www.w3.org/2000/svg" p-id="777" xmlns:xlink="http://www.w3.org/1999/xlink" width="200" height="200"><defs><style type="text/css"></style></defs><path d="M828.952381 97.52381h-48.761905v121.856L731.428571 170.666667V48.737524h146.285715V292.571429l-48.761905-48.786286V97.52381z m160.841143 466.96838L512 102.034286 34.206476 564.49219 0 531.260952 498.566095 48.737524l13.433905 13.043809 13.433905-13.043809L1024 531.260952l-34.206476 33.231238zM498.566095 219.37981l13.433905 13.06819 13.433905-13.06819L853.333333 555.641905l-5.241904 5.095619H853.333333v414.47619H609.52381V682.617905h-195.04762v292.595809H170.666667v-414.47619h5.241904L170.666667 555.641905 498.566095 219.37981zM219.428571 926.427429h146.285715v-292.571429h292.571428v292.571429h146.285715V573.952L512 273.92 219.428571 573.952v352.475429z" fill="#ffffff" p-id="778"></path></svg>